<?xml version="1.0" encoding="utf-8"?>
<!-- Generator: Adobe Illustrator 21.1.0, SVG Export Plug-In . SVG Version: 6.00 Build 0)  -->
<svg version="1.1" id="Слой_1" xmlns="http://www.w3.org/2000/svg" xmlns:xlink="http://www.w3.org/1999/xlink" x="0px" y="0px"
	 viewBox="0 0 595.3 419.5" style="enable-background:new 0 0 595.3 419.5;" xml:space="preserve">
<path d="M230.2,108.2l-1.8-0.2c-0.7,0-1.6,0.2-2.4,0.6c-0.5,0.2-0.9,0.3-1.3,0.4c-1.3,0.4-2.2,1-3.4,1.8c-1.6,1.1-2.5,2.2-2.9,3.7
	c-0.4,1.6-0.2,3.2,0.6,4.6c0.8,1.4,2.4,2.5,4.1,2.9c1.5,0.3,2.9,0.1,4-0.7l0,0l1.5-0.9c0.8-0.2,1.6-0.6,2.3-0.9l0.8-0.3
	c1.2-0.5,2.2-2.2,2.6-3.5c0.4-1.6,0.2-3.2-0.6-4.6C233,109.7,231.7,108.6,230.2,108.2z"/>
<path d="M207.1,121.9c-0.3-0.1-0.7-0.1-1.1-0.1c-0.8,0-1.7,0.2-2.6,0.8c-27.4,20.8-44.5,56.6-44.7,93.4c0,4,3,5.7,5.9,5.8
	c0,0,0,0,0,0c2.9,0,6-1.8,6-5.8c0.2-32.6,15.2-65.1,38.4-82.8c2.4-1.8,4.3-5,2.3-8.3C210.6,123.5,208.9,122.3,207.1,121.9z"/>
<path d="M437,98.5c3-15.7-6.4-31-21.9-35.6v0c-2.5-0.8-5.2-1.1-7.9-1.1c-4.9,0-9.9,1.2-14.8,3.6c-7.9,3.9-12.2,11.2-14.5,16.7
	c-1.1,2.6-1.7,5.9-1.8,9.7c0,0.3,0,0.5,0,0.8c0,0.3,0,0.6,0,0.8c0.7,15.7,12.3,27.9,28.3,29.8C419.1,124.9,434.1,113.6,437,98.5z
	 M420.1,105.8c-3.6,3.5-8.3,5.4-13.2,5.5h0c-0.1,0-0.2,0-0.3,0c-10,0-18.3-8.3-18.5-18.7c0.2-10.4,8.4-18.6,18.7-18.8
	c10.1-0.2,18.6,8.2,18.8,18.7C425.7,97.5,423.7,102.2,420.1,105.8z"/>
<g>
	<polygon points="223.8,232.2 223.7,232.3 223.7,232.3 223.8,232.2 	"/>
	<path d="M469.7,101.5c0.3-1.9,0.5-4,0.6-6.1c-0.2-29.6-21.2-55.7-49.9-62c-28.8-6.3-59.5,9.1-71.4,35.9c-1,2.2-1.9,4.5-2.6,6.8
		l-0.5,1.5l-1.4-0.6c-18.6-7.7-38.5-11.7-58.6-11.7c-5.1,0-10.3,0.3-15.4,0.8c-28.4,2.9-55.4,13.8-78.1,31.4
		c-21.6,16.8-38.4,39.6-48.6,65.9c-10.1,26.1-12.4,56.3-6.5,85.1c11.3,55,54,100.2,109,115.1c55.6,15.1,116.1-3.3,154-46.9
		c24-27.5,37.2-63,37.3-99.7c0-15.3-2.4-30.5-7.1-45.2l-0.2-0.7l0.5-0.6c2.7-3.5,5.4-7,8-10.5c8-10.8,14.4-20.5,19.5-29.6
		C463.1,122,468.2,111.9,469.7,101.5z M339,93.9l4.5-1.5l0,2c0,4.2,0.5,8.3,1.5,12.1c2.8,10.8,8.5,21.2,13.8,30
		c5,8.4,10.7,16.8,17.4,25.7l0.7,1L376,164c-1.9,1.8-3.7,3.6-5.6,5.1c-1.3,1.1-2.9,2.4-5,3.5l-0.6-0.9l0.2,1
		c-0.2,0.1-0.6,0.2-1.1,0.4c-0.5,0.2-1,0.4-1.2,0.4c-1.4,0.4-2.8,0.7-4.3,1c-1.3,0.3-2.7,0.5-4,0.7l-7,1c-2.1,0.3-4.2,0.6-6.4,0.8
		c-5,0.7-10.4,1.7-15.4,3.9c-5.2,2.3-8.1,8.2-6.9,13.9c0.6,2.7,2.3,4.9,5.2,6.7c0.6,0.3,1.2,0.6,1.8,0.9l0.8,0.4
		c0.5,0.3,1,0.5,1.5,0.9l0.5,0.3l0.3,1c0.2,0.7,0.4,1.5,0.5,2.2l-0.5,0.1l0.5,0c0,0.2,0.1,1,0.2,1.5l0.1,0.7
		c0.4,3.8,1.7,6.5,4.1,8.6c4.5,4,9.5,4.6,16.5,4.3c1.2,0,2.4,0,3.6,0l0.6,0.1l0.8,0.2l0.2,0.8c0.1,0.2,0.1,0.4,0.1,0.6h0l0,0.1
		l-1,0.3l1,0.1l0.1,1.9l-0.5,0c0,0,0,0,0,0l-1.1-0.1l1.1,0.6c-0.5,1.1-1.1,2.1-1.6,2.8c-1.4,2.2-2.3,3.1-4.5,5.6l-0.3,0.3
		c-2.1,2.3-4.3,4.5-6.5,6.6c-2,2-4,3.9-5.9,6c-3.6,3.8-7.1,7.9-7.8,12.3c-0.6,3.4,0,6.8,1.7,10.7c0.5,1.1,1.5,2.3,2.4,3.1l1.9,1.9
		l-1.5,0.9c-0.5,0.3-0.9,0.5-1.4,0.8c-1.2,0.7-2.5,1.2-3.8,1.8l-0.4,0.2c-5.6,2.4-11.1,5.2-13.2,11.1c-0.9,2.6-1.4,5.4-2,8.1
		l-0.3,1.7c-0.3,1.5-0.7,3-1.2,4.6c-0.2,0.7-0.5,1.4-0.7,2c-0.1,0.1-0.3,0.5-0.5,0.9c-0.2,0.3-0.4,0.7-0.5,0.8l-1.2-0.6l1,0.9
		c-4.5,5.4-12.7,7.7-18.4,7.9l-0.1,0l-0.3,0c-0.3,0-0.9-0.1-1.2-0.1l-0.2,0l-0.3-0.1c-0.2-0.1-0.5-0.2-0.6-0.2l0.1-0.7l-0.4,0.6
		l-0.2-0.1l0,0.1c-0.3-0.2-0.7-0.4-1-0.6l0,0h0l0-0.1l-0.2-0.2l0.2-0.3l-0.3,0.3c-0.1-0.1-0.5-0.4-0.7-0.6c-0.2-0.1-0.3-0.2-0.3-0.3
		c-2.2-2.1-3.7-5-5.4-8.4c-1.4-2.8-2.4-5.3-3.5-7.9l-0.8-2c-0.6-1.3-0.8-2.4-0.9-3.4c-0.1-2,0-2.6,0.5-4.2l0.3-0.9
		c0.7-2.3,1.4-3.8,2.3-5.7c0.3-0.7,0.6-1.4,1-2.2c1.5-3.4,2.7-6.2,2.6-9.3c-0.1-3.2-1.7-6.3-4.7-9.3c-0.8-0.8-1.9-1.7-2.9-2.5
		c-1.6-1.3-3-2.5-3.7-3.5c-0.7-1-1.3-2.8-2-4.7c-0.5-1.4-1-2.9-1.6-4c-1.6-3.3-3.8-6.4-6-9.2c-2.5-3.3-4.4-5.8-7.9-7.2
		c-1.8-0.7-4.1-0.9-6.7-0.6c-2.4,0.3-5,0.8-8.1,1.6c-1.2,0.3-2.5,0.6-3.8,0.9c-0.6,0.2-1.3,0.3-2,0.4c-0.1,0-0.5,0.1-0.9,0.2
		c-0.4,0.1-0.7,0.1-0.9,0.1c-1.3,0.1-2.4,0.2-3.6,0.1c-0.1,0-0.6,0-0.9-0.1l-0.4-0.1c-0.5-0.1-0.9-0.2-1.4-0.4l-0.5-0.2l0.4-1.3l0,0
		l-0.7,1.1c-0.1,0-0.3-0.2-0.5-0.3c-0.2-0.1-0.4-0.3-0.5-0.3l0.6-1.1l-0.8,1c-0.3-0.2-0.5-0.4-0.7-0.6l-0.3-0.3l0,0
		c-0.6-0.6-0.9-1.2-1.3-1.9l-0.2-0.4c-1.6-2.6-2.3-5.3-3-8.5c-0.3-1.5-0.3-1.9-0.4-3.3l0-0.7c-0.1-1.8-0.1-3.7,0-6.1
		c0.3-6,1.8-12.6,4.4-19.8c0-0.1,0.5-1.2,0.5-1.4c0.3-0.7,0.5-1.2,0.8-1.8c0.6-1.3,1.2-2.5,1.9-3.7c0.6-1,1.3-2.1,1.9-3l0.4-0.5
		c0.6-0.7,1.3-1.3,1.9-1.9c3.7-3.4,10.6-6.5,15.7-8c3.1-0.9,5.6-1.4,8.3-1.6c1.2-0.1,2.4-0.1,3.8,0l0,1l0.2-1l0.5,0.1
		c0.3,0,0.6,0.1,0.7,0.1c0.1,0,0.5,0.1,0.9,0.3c0.1,0,0.2,0.1,0.3,0.1l0.1-0.1l0.7,0.4c1.7,0.8,3.2,2,4.7,3.2
		c0.7,0.5,1.4,1.1,2.1,1.6c2.9,2,5.6,3.6,8.3,4.7c6.9,3.1,14.6,4.2,23,3.5c14-1.2,24.6-13.1,25.2-28.2c0.3-6.9-2.2-14-7-20
		c-3.2-3.9-8.4-6.1-15.7-6.5c-1-0.1-2.1-0.1-3.1-0.1c-1.1,0-2.1,0-3.2-0.1c-0.1,0-0.3,0-0.5,0l-1.3-0.3l-0.3-0.7
		c-0.1-0.3-0.2-0.7-0.3-0.9l-0.2-1.1c-0.1-0.7-0.1-1.5,0-2.2l0-0.3l0.2-0.8c0-0.2,0.1-0.4,0.2-0.6c0.2-0.5,0.4-0.7,0.5-1
		c0.3-0.6,0.7-1.1,1-1.6l0.4-0.5c1-1.2,2.1-2.2,3-3c0.6-0.5,1.1-1,1.7-1.5l0.6-0.5c1.5-1.1,2.9-2.1,4.7-3.2
		c5.3-3.4,11.3-6.4,19.5-10l3.4-1.4c1.6-0.6,3.2-1.3,4.9-1.9C333.7,95.7,336.3,94.8,339,93.9z M419.6,258.3
		c-3.9,12.8-9.4,24.4-17.3,36.3c-14.5,22-35.4,39.5-60.5,50.7c-17,7.6-36.6,11.6-56,11.6c-8.3,0-16.5-0.7-24.6-2.2
		c-13.5-2.4-26.4-6.8-38.6-13c-12.2-6.2-22.5-13.5-32.6-23c-19.6-18.4-33.4-42.2-40-68.6c-3.3-13.5-4.5-26.8-3.7-41.8
		c0.4-7.2,1.1-12.6,2.7-20.2c1.4-6.6,3.4-13.4,5.9-20.2c18.6-50.7,67.7-87.1,122.2-90.4c16.5-1,32.8,0.8,48.5,5.5l4,1.2l-3.9,1.5
		c-9.7,3.7-18.6,7.9-26.4,12.5c-7.6,4.5-16.8,10.9-19.8,20.4c-1.8,5.5-0.5,12.5,3.1,17c3.1,3.9,8.6,4.5,13.5,4.6l0.9,0
		c0.8,0,1.6,0,2.4,0c0.6,0,1.1,0.1,1.7,0.1l0.4,0c0.3,0.1,0.9,0.2,1.4,0.4c0.1,0,0.2,0.1,0.3,0.1l0.2-0.2l1,0.5
		c0.4,0.2,0.8,0.4,1.1,0.6l0.2,0.2c0.3,0.3,0.7,0.6,1,0.9l0.4,0.5c0.1,0.1,0.1,0.2,0.3,0.4c0.4,0.7,0.8,1.4,1.2,2.1
		c0.5,0.9,0.9,2.2,1.4,3.8c0.6,2.3,0.6,6.2,0.3,7.8c-1.1,5.8-3.8,9.6-8.8,12.2l-0.6,0.3c-0.1,0-0.3,0.1-0.5,0.2
		c-0.8,0.3-1.5,0.5-2.3,0.6l-0.7,0.1c-0.2,0-0.5,0-0.9,0.1c-1.1,0.1-2.2,0.1-3.2,0.2c-4.2,0.1-6.7-0.2-10.6-1.3
		c-1.7-0.5-1.8-0.5-2.8-1l-0.5-0.3c-1.4-0.7-2.8-1.5-4.1-2.2c-2.6-1.6-5.1-3.4-7.5-5.1l-1.1-0.8c-5.4-3.9-13.3-3.6-17.5-3.1
		c-15,1.8-28,8.8-34.7,18.7c-6.9,10.1-10.8,24.7-10.6,39c0.1,7.9,2,15.2,5.6,21c3.6,6,9.4,9.4,16.8,10.1c4.6,0.4,9.5-0.9,14.2-2.1
		l2.4-0.6c1.2-0.3,2.3-0.5,3.5-0.8c0.7-0.1,1.2-0.1,1.6-0.1l0.7,0l0.4,0.5c0.4,0.4,0.7,0.9,1.1,1.4l0.4,0.6c2.3,3.1,4.2,6,5.6,8.8
		c0,0,0-0.1,0.2,0.4c0.1,0.2,0.2,0.5,0.3,0.7l0,0l0.1,0.3c0.2,0.6,0.4,1.2,0.6,1.7l0.2,0.6c0.7,1.9,1.3,3.6,2.3,5.2
		c1.6,2.4,3.8,4.3,6.1,6.2l0.5,0.4v-2.4l2.7,4.9l0,0.1l0.2,0.3l-0.2,0.1l0,0.2l0.2,0.1l0,0.2l-0.3,0c0,0,0,0.1,0,0.1l0.1,0l-1.6,3.5
		c-0.5,1.2-1.1,2.3-1.6,3.5c-1.9,4.4-2.9,8.1-3.3,12c-0.3,3.7,1.2,7.7,2.3,10.4l0.5,1.3c1.4,3.4,2.9,6.9,4.6,10.2
		c3.9,7.7,8.7,12.6,14.8,14.8c3.4,1.3,7.7,0.7,11.4,0.1c3.9-0.6,7.8-1.9,12.2-4c7.1-3.4,11.8-9,14.5-17.2c0.6-1.9,1-3.8,1.4-5.8
		c0.2-1.1,0.4-2.1,0.6-3.1c0.2-1,0.5-1.9,0.7-2.8l0.7-1.6l0.8-0.7c0.2-0.1,0.3-0.2,0.5-0.3c2.2-1.4,4.5-2.4,6.7-3.4
		c2.9-1.3,5.6-2.5,8.1-4.5c2.3-1.9,3.8-4.7,4.1-8.1c0.3-3.6-0.7-7.2-2.9-9.6c-0.4-0.5-0.8-0.8-1.3-1.2l-0.3-0.3
		c-0.1-0.1-0.3-0.3-0.4-0.4l-0.5-1c-0.1-0.4-0.1-0.9-0.2-1.3l0-0.4l0.1-0.5c0.1-0.3,0.2-0.6,0.3-0.7c0.1-0.2,0.5-0.8,0.9-1.3
		c0.1-0.2,0.2-0.3,0.3-0.5l0-0.1l0.3-0.3c0.7-0.8,1.4-1.6,2.1-2.4c1.8-2,3.8-3.9,5.7-5.8l2-2c7.9-7.8,16.9-16.5,15.1-28.1
		c-1.4-9.2-10.8-10.8-13.6-11c-1.5-0.1-3.1-0.1-4.7,0c-0.7,0-1.4,0.1-2.1,0.1c-0.2,0-0.8,0-1.4-0.1c-0.5,0-1-0.1-1.1-0.1l-0.3,0.1
		l-0.5-0.2c0,0,0,0,0,0l0,0l0.1-0.3l-0.1,0.1c-0.1-0.1-0.4-0.2-0.5-0.2l0.4-1.2l0,0l-1,1c-0.1-0.1-0.2-0.2-0.3-0.3l-0.6-0.8l0.2-0.3
		l-0.1-1.1c-0.3-3.4-1.1-7.8-4-11.2c-0.9-1.1-2.1-2-3.7-2.9l-3-1.7l3.3-0.9c0.7-0.2,1.3-0.3,2-0.5c2.2-0.5,4.4-0.9,6.5-1.2l1.2-0.2
		l0,0l7.5-1c8.5-1.1,17.4-2.2,24.3-7.5c2.6-2,5.2-4.1,7.6-6.3l1.1-1l1,1.2c3.7,4.5,7.5,9.1,11.7,14.1c1.8,2.1,3.7,4.3,5.6,6.3
		c2,2.2,6.4,2.2,8.4,0c2.8-3,5.6-6.2,8.6-9.7l1.8-2.2l0.6,2.8c2.4,10.4,3.7,21.2,3.7,31.9C425.7,231.7,423.8,244.4,419.6,258.3z
		 M458.1,98.4l0,0.4c-0.1,0.4-0.1,0.9-0.2,1.3c-0.4,2.1-1,4.3-1.9,7.1c-0.4,1.2-0.8,2.3-1.2,3.4c-0.2,0.5-0.4,1-0.6,1.5l-0.3,0.6
		c-1.1,2.6-2.3,5-3.8,8c-4.7,9.1-10.6,18.4-19.2,30.2c-1.6,2.3-3.3,4.5-5,6.7l-1.9,2.5c-0.9,1.1-1.7,2.2-2.6,3.3
		c-2.8,3.6-5.8,7.2-9.1,11.1c-1.5,1.8-2.9,3.5-4.4,5.2l-1.1,1.3l-1.1-1.3c-1.1-1.2-2.1-2.5-3.2-3.7c-2.8-3.4-5.8-6.9-8.7-10.6
		c-0.8-1-1.6-2-2.4-3l-1.8-2.3c-1.8-2.3-3.5-4.6-5.2-6.9c-8.2-11.1-14.4-20.6-19.5-30.1c-1.3-2.3-2.5-4.7-3.7-7.2
		c-0.5-1-0.9-2-1.3-2.9l-0.5-1.2c-0.3-0.8-0.6-1.5-0.9-2.3c-0.8-2.2-1.5-4.4-2.1-6.7c-0.3-1.1-0.5-2.1-0.7-3.2l-0.2-2.1
		c-0.9-12.1,3.6-25.1,11.9-35c8.5-10.1,20.7-16.7,33.3-18.1c13.5-1.5,27.1,2.2,37.3,10.1c10.8,8.4,17.4,19.6,19.8,33.4
		c0.3,1.8,0.5,5.3,0.5,7.7C458.2,96.4,458.2,97.4,458.1,98.4z"/>
	<polygon points="343.4,208.8 343.4,208.8 343.4,208.7 343.4,208.7 	"/>
</g>
</svg>
