<?xml version="1.0" encoding="utf-8"?>
<!-- Generator: Adobe Illustrator 21.1.0, SVG Export Plug-In . SVG Version: 6.00 Build 0)  -->
<svg version="1.1" id="Слой_1" xmlns="http://www.w3.org/2000/svg" xmlns:xlink="http://www.w3.org/1999/xlink" x="0px" y="0px"
	 viewBox="0 0 595.3 419.5" style="enable-background:new 0 0 595.3 419.5;" xml:space="preserve">
<path d="M298.3,192.8c-44.8-0.3-87.2,17-119.3,48.8c-32,31.7-49.6,73.9-49.8,118.9c0,1.3,0.5,2.6,1.5,3.6c0.9,0.9,2.2,1.5,3.5,1.5
	c2.8,0,5-2.2,5-5c0-5.9,0.4-11.9,1.2-18.3l0.3-2.1l1.9-0.9c9.6-4.2,19.6-7,29.6-8.3c1.4-0.2,3.1-0.4,4.8-0.4c1.7,0,3.1,0.2,4.4,0.6
	c1.3,0.5,2.2,1.2,2.6,1.6l1.7,1.7l-0.9,2.3c-0.6,1.5-2,3.2-3.8,5.3l-0.8,1c-4.8,5.5-8.3,12.1-10.3,19.1c-0.4,1.3-0.2,2.6,0.4,3.8
	c0.6,1.2,1.7,2,3,2.4c2.7,0.8,5.4-0.8,6.2-3.5c1.6-5.5,4.5-10.9,8.3-15.3l0.7-0.8c3-3.5,7.2-8.2,6.7-14.4
	c-0.4-5.7-4.5-10.7-10.6-12.7c-4.6-1.5-9.3-1.2-13.7-0.7c-7.1,0.9-14.5,2.7-22,5.1l-6.5,2.1l1.7-6.6c7-27.5,21.5-52.7,41.9-72.9
	c29.9-29.6,69.5-45.9,111.6-45.9h0.7c0.9,0,1.8,0,2.8,0.1l4.1,0.1l0.7,2.7c1.6,5.7,5.1,10.7,8.2,15.1c4,5.7,7.4,10.5,7,15.8
	c-0.8,9.8-14.5,14.7-25.5,18.6l-1,0.3c-12,4.3-23.2,10.3-33.4,18c-5.3,4-11.6,9.6-14,17.4c-4,13.1,4.1,25.5,10.6,35.4l0.8,1.3
	c2.8,4.2,11.3,18.5,4.4,26.6c-5.7,6.8-17.8,4.1-29.9,0.2c-2.6-0.8-5.5,0.6-6.3,3.3c-0.8,2.6,0.6,5.4,3.3,6.3
	c5.5,1.7,13.8,4.4,22,4.4c8,0,14.2-2.6,18.5-7.7c7.8-9.2,6.5-23.3-3.6-38.7l-0.8-1.3c-5.9-9-12.1-18.4-9.4-27c1.5-5,6.1-9,10.5-12.3
	c9.3-7.1,19.7-12.7,30.8-16.6l0.9-0.3c12.3-4.4,30.8-10.9,32.2-27.2c0.7-8.8-4.3-16-8.7-22.2c-1.1-1.6-2.1-3.1-3.1-4.6l-4.5-7
	l8.3,1.3c24.3,3.9,46.9,13.1,66.9,27.5l3,2.2l-36.5,50.7c-7,9.7-7.7,18.7-2,24.1c2.7,2.5,6,3.3,8.7,3.9c6.2,1.3,12.4,2,18.9,2.1
	l4.5,0.1l0.9,2.4c0.4,1.1,0.7,2.6,0.8,4.4c0.6,8.8-0.5,17.8-3.3,26c-0.5,1.6-0.2,3.5,0.9,4.8c4,4.8,11.7,5.3,18.6,1.3
	c1-0.6,1.9-1.2,2.9-1.8c2.8-1.8,4.8-3,6.7-3.1c2.4,0,4.7,1.5,8.6,4.6c4,3.2,8.5,6.8,14.6,6.9c4.5,0,8.9-2,12.5-5.8l6.2-6.5l0.3,9.9
	c0,1.1,0.1,2.3,0.1,3.4c0,2.8,2.2,5,5,5c2.8,0,5-2.2,5-5c0.2-45-17.2-87.4-48.9-119.3C385.5,210.6,343.3,192.9,298.3,192.8z
	 M452.1,325.8l0.4,0.2l-0.2,0.4l0.1,0.3l-1,1.4c-1.7,3.1-2.8,6.5-3.7,9.2c-0.7,2.2-1.5,4.5-2.5,6.6c-1.6,3.5-4.7,7-7.9,7
	c-2.5,0-4.8-1.7-8.4-4.6l-0.3-0.3c-4.3-3.5-8.7-6.9-14.9-6.6c-4.4,0.1-7.7,2-10.8,4l-7,4.4l1.4-8.2c1-5.9,1.3-12,0.9-18.1
	c-0.5-7.3-3-12.2-7.4-14.5c-2.9-1.6-5.9-1.6-8.8-1.7c-5.5-0.1-11.1-0.7-16.6-1.8l-5.4-1.2l0.9-3.7c0.3-1.2,1.2-3.8,3.7-7.4
	l36.2-50.3l3.1,2.8c2.2,2,4.3,4,6.4,6.1c20.7,20.9,35.2,47,41.8,75.4L452.1,325.8z"/>
<path d="M287.9,165.4l23.3-4.9c2-0.4,3.5-2,3.9-4l6.7-35.9l55.4-11.6c10.9-2.3,17.9-13,15.6-23.9c-0.4-1.8-1.6-3.2-3.3-3.7L353,69.4
	c-0.8-0.3-1.8-0.3-2.7-0.1l-30.7,6.8l-5.8-29c-0.3-1.3-1-2.5-2.2-3.2c-1.1-0.7-2.4-1-3.8-0.7L284.5,48c-2,0.4-3.5,1.9-3.9,3.9
	l-7.3,34.5l-30.5,6.8L218.2,77c-1.1-0.7-2.5-1-3.8-0.7l-10.9,2.3c-1.5,0.3-2.7,1.3-3.4,2.6c-0.7,1.3-0.7,2.9-0.2,4.3l22,52
	c0.9,2.1,3.4,3.4,5.6,3l47.8-10.1l6.6,31.2c0.3,1.3,1.1,2.4,2.2,3.2C285.2,165.4,286.6,165.7,287.9,165.4z M289.7,57.2l15.2-3.2
	l4.9,24.3L284.1,84L289.7,57.2z M282.1,113.5c-0.3-1.3-1-2.4-2.2-3.2c-1.1-0.7-2.5-1-3.8-0.7c-1.3,0.3-2.4,1-3.2,2.2
	c-0.7,1.1-1,2.5-0.7,3.8l1,5l-43.7,9.2l-19.5-46l29.1,18.9c1.2,0.7,2.5,1,3.8,0.7l108.2-24l32.9,10.8l-2.1,3.9
	c-1.4,2.6-3.9,4.5-6.8,5.1l-50.3,10.6l-0.6-3.9c-0.3-2.1-1.9-3.8-4-4.2c-2.7-0.5-5.3,1.3-5.9,4l-8.5,45.8l-15.1,3.2L282.1,113.5z"/>
<path d="M350.4,135.8c-0.4-0.1-0.8-0.1-1.2-0.1c-0.9,0-1.8,0.3-2.6,0.7c-1.1,0.7-1.9,1.8-2.3,3.1c-0.6,2.7,1,5.4,3.7,6
	c52.3,12.4,97.9,43.7,128.6,88.2c0.7,1,1.9,1.8,3.2,2c1.3,0.2,2.7,0,3.7-0.7c1.1-0.8,1.9-1.9,2.1-3.2c0.2-1.3,0-2.6-0.8-3.7
	C452.9,181.5,405.1,148.8,350.4,135.8z"/>
<path d="M210.1,158.1c1.2-0.5,2.2-1.5,2.7-2.8c0.5-1.2,0.5-2.6-0.1-3.8c-0.5-1.2-1.5-2.2-2.8-2.7c-0.6-0.2-1.2-0.3-1.8-0.3
	c-0.7,0-1.4,0.1-2,0.4c-38.7,17.1-71.8,44.6-95.8,79.6c-1.6,2.3-1,5.4,1.3,7c2.2,1.5,5.5,0.9,7-1.3
	C141.5,200.8,173.2,174.5,210.1,158.1z"/>
</svg>
