<?xml version="1.0" encoding="utf-8"?>
<!-- Generator: Adobe Illustrator 21.1.0, SVG Export Plug-In . SVG Version: 6.00 Build 0)  -->
<svg version="1.1" id="Слой_1" xmlns="http://www.w3.org/2000/svg" xmlns:xlink="http://www.w3.org/1999/xlink" x="0px" y="0px"
	 viewBox="0 0 595.3 419.5" style="enable-background:new 0 0 595.3 419.5;" xml:space="preserve">
<g>
	<path d="M421.9,124.7c-0.1-18.6-0.2-37.3-0.2-55.9c0-2.9-1.8-5.4-4.5-6.4c-2.7-1-5.7-0.2-7.6,2c-10.6,12.5-32.7,20.5-56.5,20.5
		c-28.3,0-53.9-11.5-60.8-27.3c-2.2-5-10.3-5-12.5,0c-7,15.8-32.5,27.3-60.8,27.3c-23.7,0-45.9-8-56.5-20.5c-1.9-2.2-4.9-3-7.6-2
		c-2.7,1-4.5,3.6-4.5,6.4c0,18.6-0.1,37.3-0.2,55.9c-0.1,18.7-0.2,37.3-0.2,55.9c0,72.8,51.1,140.1,133.4,175.7
		c0.9,0.4,1.8,0.6,2.7,0.6c0.9,0,1.9-0.2,2.7-0.6c82.3-35.6,133.4-102.9,133.4-175.7C422.1,162,422,143.3,421.9,124.7z M286.1,342.5
		c-75.6-33.7-122.4-95.5-122.4-161.9c0-18.6,0.1-37.2,0.2-55.8c0.1-13.7,0.2-27.4,0.2-41.1c14.1,9.4,33.8,14.8,54.9,14.8
		c28.8,0,54.1-9.9,67.1-25.5c13,15.6,38.3,25.5,67.1,25.5c21,0,40.7-5.5,54.9-14.8c0,13.7,0.1,27.4,0.2,41.1
		c0.1,18.6,0.2,37.2,0.2,55.8C408.5,247,361.6,308.8,286.1,342.5z"/>
	<path d="M356.3,141.3c-3.2-2.1-7.4-1.2-9.5,2L281,243.8l-44.1-51.1c-2.5-2.9-6.8-3.2-9.7-0.7c-2.9,2.5-3.2,6.8-0.7,9.7l50,58
		c1.3,1.5,3.2,2.4,5.2,2.4c0.2,0,0.3,0,0.5,0c2.1-0.1,4.1-1.3,5.3-3.1l70.8-108.1C360.3,147.6,359.5,143.4,356.3,141.3z"/>
</g>
</svg>
