<?xml version="1.0" encoding="utf-8"?>
<!-- Generator: Adobe Illustrator 21.1.0, SVG Export Plug-In . SVG Version: 6.00 Build 0)  -->
<svg version="1.1" id="Слой_1" xmlns="http://www.w3.org/2000/svg" xmlns:xlink="http://www.w3.org/1999/xlink" x="0px" y="0px"
	 viewBox="0 0 595.3 419.5" style="enable-background:new 0 0 595.3 419.5;" xml:space="preserve">
<g>
	<path d="M371.4,358.9c-1.5,0-2.9-0.6-4-1.6l-17.9-17.9c-1.4-1.4-2-3.5-1.4-5.5l15.9-57c-16.7-12.9-36.1-29-56.3-46.8l-78.4,108.8
		c-1,1.3-2.5,2.2-4.1,2.3c-1.6,0.1-3.2-0.5-4.4-1.6l-26.5-26.5c-1.6-1.6-2.1-4-1.2-6.1l55.2-132.3c-2-2-4-4-6-5.9
		c-32.5-32.5-55.1-58.9-67.2-78.4c-4.4-7.1-17.9-28.9-6.2-40.5c9.8-9.8,32.8-12.8,119,73.4c2,2,4,4,6,6L426,73.9
		c2.1-0.9,4.5-0.4,6.1,1.2l26.5,26.5c1.2,1.2,1.8,2.8,1.6,4.4c-0.1,1.6-1,3.1-2.3,4.1l-108.8,78.4c17.9,20.3,34,39.6,46.8,56.3
		l57-15.9c1.9-0.5,4,0,5.4,1.4l17.9,17.9c1.2,1.2,1.8,2.9,1.6,4.6c-0.2,1.7-1.1,3.2-2.6,4.1l-50.2,31.8c3.2,6.8,4.9,13.6,0.6,17.9
		c-4.3,4.3-11.1,2.6-17.9-0.6l-31.8,50.2c-0.9,1.4-2.4,2.4-4.1,2.6C371.8,358.8,371.6,358.9,371.4,358.9z M359.7,333.7l10.7,10.7
		l30.8-48.6c1.6-2.5,4.8-3.3,7.4-1.9c3.9,2.1,6.5,3.1,8.1,3.7c-0.5-1.7-1.6-4.2-3.7-8.1c-1.4-2.6-0.6-5.8,1.9-7.4l48.6-30.8
		l-10.7-10.7l-57.5,16c-2.2,0.6-4.6-0.2-5.9-2c-14-18.4-32.3-40.3-52.7-63.3c-1.1-1.2-1.6-2.8-1.4-4.3c0.2-1.6,1-3,2.3-3.9
		l108.5-78.1l-19.2-19.2l-132.3,55.2c-2.1,0.9-4.5,0.4-6.1-1.2c-2.9-2.9-5.7-5.8-8.5-8.6C194.1,45.2,178.2,56,176.7,57.6
		c-1.3,1.3-4.5,6.9,7.8,26.7c11.6,18.8,33.7,44.5,65.6,76.4c2.8,2.8,5.7,5.7,8.6,8.5c1.6,1.6,2.1,4,1.2,6.1l-55.2,132.3l19.2,19.2
		l78.1-108.5c0.9-1.3,2.4-2.1,3.9-2.3c1.6-0.2,3.2,0.3,4.3,1.4c23,20.4,44.8,38.7,63.3,52.7c1.8,1.4,2.6,3.7,2,5.9L359.7,333.7z"/>
</g>
</svg>
