<?xml version="1.0" encoding="utf-8"?>
<!-- Generator: Adobe Illustrator 21.1.0, SVG Export Plug-In . SVG Version: 6.00 Build 0)  -->
<svg version="1.1" id="Слой_1" xmlns="http://www.w3.org/2000/svg" xmlns:xlink="http://www.w3.org/1999/xlink" x="0px" y="0px"
	 viewBox="0 0 595.3 419.5" style="enable-background:new 0 0 595.3 419.5;" xml:space="preserve">
<circle cx="138.3" cy="321.7" r="7.6"/>
<circle cx="168.5" cy="362.6" r="7.6"/>
<circle cx="123.3" cy="366.1" r="7.6"/>
<path d="M276,313.4l181.3-139.6c6.2-4.7,9.8-11.4,10.3-18.8c0.5-7.4-2.3-14.5-7.8-20L355.4,30.7c-5.1-5.1-11.6-7.8-18.4-7.8
	c-7.9,0-15.4,3.8-20.4,10.3L177,214.5c-3.8,4.9-5.9,11.1-6.1,18l-0.1,2.2l-1.2-1.2c-11.2,11.6-17.4,26.8-17.4,43
	c0,16.5,6.4,32.1,18.1,43.7c11.7,11.7,27.2,18.1,43.7,18.1c16.2,0,31.5-6.2,43.1-17.5l-1.1-1.1l2.1-0.1
	C264.7,319.4,271.1,317.2,276,313.4z M240.9,317.1c-8,5.3-17.3,8.1-27,8.1c-13,0-25.3-5.1-34.5-14.3c-16.3-16.3-18.9-42.2-6.1-61.4
	l0.8-1.3l0.7,1.3c1.5,2.7,3,4.8,4.8,6.5l54.6,54.6c1.7,1.7,3.8,3.2,6.5,4.7l1.3,0.8L240.9,317.1z M243.6,301.5L189,246.9
	c-6.2-6.2-7-17.4-1.6-24.4L327,41.2c2.6-3.4,6.2-5.2,10-5.2c3.3,0,6.5,1.4,9.1,4l104.4,104.4c2.8,2.8,4.2,6.3,4,9.9
	c-0.2,3.6-2.1,6.9-5.2,9.3L268,303.1c-3,2.3-7,3.5-11.1,3.5C252,306.5,246.9,304.8,243.6,301.5z"/>
</svg>
