<?xml version="1.0" encoding="utf-8"?>
<!-- Generator: Adobe Illustrator 21.1.0, SVG Export Plug-In . SVG Version: 6.00 Build 0)  -->
<svg version="1.1" id="Слой_1" xmlns="http://www.w3.org/2000/svg" xmlns:xlink="http://www.w3.org/1999/xlink" x="0px" y="0px"
	 viewBox="0 0 595.3 419.5" style="enable-background:new 0 0 595.3 419.5;" xml:space="preserve">
<path d="M284.8,369.9c27-3.1,112.3-37.9,144.6-97.6c17.3-32,17.2-66-0.3-101.1c-0.1-0.2-0.2-0.4-0.4-0.6c-1.4-2.1-35-51.9-80.8-51.9
	c-2.7,0-5.4,0.2-8,0.5c-7.1,0.9-14.1,2.7-21,5.4l-2.8,1.1l-0.4-2.9c-5.9-40.4-30.3-84.8-81-88.4c-2.8-0.2-5.6-0.3-8.4-0.3
	c-36.3,0-70.3,16.6-90.9,44.5c-21,28.4-25.4,64.8-11.9,100.1c23.4,61.2,66.2,130.8,99.7,139.3l1.9,0.5l-0.1,2
	c-1.5,20.5,0.9,33.9,7.7,42.3h0c5.4,6.8,13.7,10,25.2,10c6.3,0,12.8-0.9,19.8-1.8l1.1-0.1C280.8,370.4,282.8,370.2,284.8,369.9z
	 M130,161.4l-1.4-9.1c-3.8-24.3,1.9-47.5,16.3-66.9c19.9-26.8,54.1-41.9,89.2-39.5c57.9,4.1,68.9,65.4,70.9,84.1l0.2,1.4l-1.2,0.8
	c-2.7,1.7-5.2,3.6-7.7,5.6l-2.4,2l-1.3-2.9c-6.8-15.5-21-42.7-40.4-51.3c-7.9-3.5-16.1-3.6-23.9-0.4c-13.7,5.7-20,11.4-25.2,16
	c-4.6,4.1-7.6,6.8-14.6,8.5c-28.5,7.1-47.7,21.9-55.3,42.9L130,161.4z M155.4,221.4l-3.4-6.8c-2.9-5.9-5.9-12.4-9-19.3
	c-8.5-39.7,7.2-63.9,48.2-74.1c9.8-2.4,14.8-6.9,19.6-11.2c4.9-4.4,10-9,21.9-14c4.9-2.1,9.6-2,14.6,0.3c19,8.5,34.1,44.2,36.9,51.2
	l0.5,1.3l-1,1.1c-3,3.4-5.6,6.7-8.1,10.2l-2,2.9l-1.9-3c-2.9-4.6-7.2-7.9-12.6-9.9c-15.7-5.7-38.3,1.8-47.2,12
	c-4,4.6-6.3,4.7-11.3,4.9c-5.7,0.2-13.6,0.5-25.1,7.7c-9.7,6.1-16.2,19.2-19.1,39L155.4,221.4z M226.4,306.1l-2.7-0.5
	c-14.6-5.4-36.9-30.4-56.7-63.5l-0.3-1.1c-0.1-1.9-1.4-46,15.1-56.2c8.9-5.6,14.5-5.8,19.4-6c5.8-0.2,12.3-0.5,19.6-8.9
	c5.5-6.3,23.1-12.8,34.4-8.7c6.1,2.2,9.1,7.1,9.4,15.1c0.1,0.4,0.2,0.6,0.2,0.8l0.1,0.8l-0.4,0.7c-6.5,12.1-12.4,26.4-17.7,42.3
	l-1,3.1l-2.6-2c-4.3-3.2-8.8-5.1-13.5-5.5c-9.4-0.9-18.4,3.7-27.1,13.5c-6.3,7.2-9,15.4-8,24.5c2.3,22.5,26.7,42.9,31.5,46.7
	l1.1,0.9L226.4,306.1z M232.1,275.5c-0.7,3.2-1.3,6.2-1.9,9.2l-0.8,4.2l-3.1-3c-7-6.7-18.8-19.8-20.1-32.6c-0.6-5.9,1.1-11,5.2-15.6
	c6-6.8,11.7-10,17-9.6c5.7,0.5,10.3,5.2,12.6,8l0.8,1l-0.3,1.2C238.1,249.9,235,262.4,232.1,275.5z M276.2,359.2
	c-6.6,0.9-12.9,1.7-18.3,1.7c-10.1,0-13.8-2.9-16.1-5.7c-7.9-9.7-7.3-35.7,1.7-77.3c13-59.8,29.8-100,51.4-122.9
	c0.5-0.4,0.7-0.6,0.9-0.8c13.2-13.6,28.1-21.2,45.6-23.5c40.9-5.1,73.7,40.6,77.3,45.9c15.6,31.5,15.8,61.8,0.4,90.1
	c-30.6,56.5-113.5,89-135.7,91.6C281,358.6,278.6,358.9,276.2,359.2z"/>
<path d="M400.3,224.1c-6.8-18.4-20.6-34.5-33.7-39.2l-0.4-0.2c-3.3-2-11.9-6.7-23.2-6.7c-12,0-29.1,5.5-42.7,31.7
	c-16.9,32.9-46.7,105-31.1,117.8c2.1,1.8,6.6,4.1,20,4.1c30.8,0,84.2-12.2,105.2-45.8C406.1,267.2,408.2,245.3,400.3,224.1z
	 M384.6,279.6c-13.1,20.9-41.9,31-57.9,35.1l-0.5,0.1l-0.5-0.1c-3.2-0.6-5.6-2-6.9-4c-2.1-3.2-2-7.3-1.5-9.4
	c1.9-6.5,7.4-8.1,16.2-10.2c3.3-0.8,6.7-1.6,9.9-2.9c14.5-5.7,27.3-23.3,28.5-39.1c0.9-11.3-4-20.7-13.8-26.4
	c-1.3-0.8-2.9-1-4.4-0.6c-1.5,0.4-2.8,1.3-3.5,2.7c-1.6,2.8-0.7,6.4,2.1,8c5.9,3.4,8.6,8.6,8,15.5c-1,12.3-12,25.5-21.1,29.2
	c-2.5,1-5.3,1.7-8.3,2.4c-8.8,2.1-20.9,5-24.8,18.3c-1.2,4.2-1.4,11,1.8,17.1l1.6,3l-3.4,0.4c-6.1,0.8-11.8,1.2-16.8,1.2
	c-5.4,0-9-0.5-11-0.9l-1.5-0.3l-0.3-1.5c-2.6-11.6,11.8-58.7,34.3-102.2c8.7-16.8,19.6-25.3,32.3-25.3c9.3,0,16.6,4.6,17.4,5.1
	c0.6,0.4,1.1,0.7,1.7,0.8c7.2,2.3,20.4,13.8,27.3,32.5C394,240.7,397,259.8,384.6,279.6z"/>
</svg>
