<?xml version="1.0" encoding="utf-8"?>
<!-- Generator: Adobe Illustrator 21.1.0, SVG Export Plug-In . SVG Version: 6.00 Build 0)  -->
<svg version="1.1" id="Слой_1" xmlns="http://www.w3.org/2000/svg" xmlns:xlink="http://www.w3.org/1999/xlink" x="0px" y="0px"
	 viewBox="0 0 595.3 419.5" style="enable-background:new 0 0 595.3 419.5;" xml:space="preserve">
<path d="M429.9,119c-30.4-7.2-94.5-32.4-111.9-60.8c-22.3-36.5-57.9-46.2-83.6-43.2c-25.2,3-45.1,18.1-52,39.4
	c-12.5,38.7,29.3,88.4,97.2,115.4l4,1.6l-4.1,1.1c-2.6,0.7-5.1,1.4-7.6,2.2l-0.4,0.1c-15.2,0.3-36.8-0.1-52.6-0.4l-0.5,0
	c-9-0.2-16.8-0.3-21.8-0.3c-28.4,0-38.7,2-42.1,8.2c-2.8,5.1,0.6,10.6,1.7,12.4c1.7,2.8,4.7,5.8,8.7,8.8
	c19.4,17.6,73.3,58.3,157.1,58.3c106.7,0,130.1-42.4,134.7-55.4c1-2.3,1.5-4.7,1.5-7.2c0-9.4-8.3-16.4-25.4-21.4l-5-1.4l5-1.3
	c21-5.7,32.1-14.5,32.1-25.6C465,134.3,453.8,124.7,429.9,119z M261.8,186.8c35.2-10.4,79-23.4,109-12c13.4,5.1,21.8,12.1,24.9,20.8
	v0c3.4,9.5-0.5,18.4-1.8,20.9l-0.3,0.6l-0.7,0.1c-21.2,4.2-50.9,6.6-88.3,6.9c-31.1-0.3-58.6-2.9-81.7-7.7l-0.3-0.1
	c-0.4-0.2-0.8-0.3-1.1-0.4c-4.2-0.8-7.8-5.7-7.7-10.4c0.1-4.6,3.7-7.7,10.3-8.8C234.5,194.9,247.8,190.9,261.8,186.8z M163.6,189.9
	c-0.7-1.1-1.1-1.9-1.2-2.4l-0.4-1.1l1-0.6c3.4-2.1,14.4-3.1,33.7-3.1c4.9,0,12.6,0.2,21.6,0.3l24.5,0.5l-11,2.6
	c-3.6,0.9-6.6,1.5-9.2,1.9c-12.8,2.1-17.4,10.3-17.5,17.3c0,1.4,0.2,2.9,0.6,4.6l0.6,2.4l-2.4-0.7c-17-5-26.9-10.4-32.2-14.1
	C167.2,193.6,164.5,190.9,163.6,189.9z M431,226.1c-15.5,12.3-46.9,26.9-108.9,26.9c-38.6,0-75.3-9.1-109-27l-9.8-5.2l10.8,2.6
	c22.3,5.2,48.8,8.3,78.9,9.2l0.4,0.1c0.5,0.1,0.9,0.2,1.2,0.2c3.3,0,6.5,0,9.7-0.1l0.5,0c2.1,0,4.2,0,6.3,0c58,0,95.7-2.9,118.6-9.2
	l6.8-1.9L431,226.1z M439.2,198.3c0.4-2.2,0.4-4.4,0-6.8l-0.4-2.7l2.4,1.2c5.5,2.8,8.3,5.8,8.3,9c0,0.5-0.1,1-0.1,1.5
	c0,0.2-0.1,0.5-0.2,0.9c-0.1,0.3-0.2,0.6-0.3,0.9c-1.8,4.5-7,8.2-15.8,11.2l-7,2.4l5.5-4.8C436,207.4,438.4,203.3,439.2,198.3z
	 M429,188.4c1.1,1.4,2.4,3.8,1.6,8.5c-0.7,4.7-5.6,11.4-24.2,16.9l-2.4,0.7l0.6-2.4c1.7-6.8,1.4-13.3-0.7-19.4
	c-1.2-3.4-3.1-6.7-5.6-9.8l-1.7-2.1l3.1-0.3c8.8,0.9,16.6,2.1,23.3,3.6l0.3,0.1C425.9,185.4,427.8,186.8,429,188.4z M400,171.8
	l-0.1,0l-0.1,0c-5.4-0.5-11.1-1-17-1.3l-0.6-0.2c-2.9-1.5-5.6-2.7-8.3-3.7c-18.3-6.9-42-6.7-74.7,0.9l-0.5,0.1l-0.5-0.2l0-1.6l0,0h0
	l-0.4,1.4c-70-22.9-119-73.3-107.1-110.1c5.9-18.3,22.7-30.8,44.8-33.4c23.1-2.8,55,6.1,75.2,39.1c20,32.7,87.7,57.7,117.3,64.7
	c28.4,6.7,28.4,17.3,28.4,21.8C456.3,152.1,453.6,166.3,400,171.8z"/>
<path d="M361.3,191.3c2.2,0.8,4.8-0.4,5.6-2.5c0.8-2.2-0.3-4.7-2.5-5.6h0c-9.9-3.7-20.8-5.2-32.3-4.5c-2.4,0.1-4.2,2.2-4.1,4.6
	c0.1,2.5,2.1,4.2,4.6,4.1c1.6-0.1,3.2-0.1,4.8-0.1C345.9,187.2,354,188.6,361.3,191.3z"/>
<path d="M381.6,193.1c-0.2-0.2-1.3-1.2-3.3-2.6c-0.7-0.5-1.6-0.8-2.5-0.8c-0.2,0-0.5,0-0.7,0.1c-1.1,0.2-2.1,0.8-2.8,1.8
	c-0.7,0.9-0.9,2.1-0.7,3.2c0.2,1.1,0.8,2.1,1.8,2.8v0c1.4,1,2.2,1.7,2.4,1.9c1.7,1.6,4.5,1.5,6.1-0.2c0.8-0.8,1.2-1.9,1.2-3.1
	C382.9,194.9,382.4,193.9,381.6,193.1z"/>
<path d="M407.4,143.7c0.4-5.2-2.8-9.8-7.9-11.2c-28.5-8.2-79.6-26.2-101.4-55.2c-23.3-31-43.3-37.6-56-37.6c-0.1,0-0.3,0-0.4,0
	c-10.8,0.1-20.6,5.2-26.8,13.9c-5.6,7.9-7.6,17.1-5.8,26.4c2.9,14.9,15.7,29.9,36.9,43.3c35.3,22.3,73,33.2,115.3,33.2
	c11.8,0,24.1-0.9,36.6-2.6C403.1,153,407,148.9,407.4,143.7z M396.7,145.2c-12.1,1.7-23.9,2.5-35.3,2.5
	c-40.6,0-77.1-10.5-110.8-31.8c-19.1-12.1-30.5-25.1-33-37.6c-1.4-7,0.1-13.7,4.4-19.7c4.5-6.4,11.8-10.1,19.8-10.2l0.4,0
	c15.1,0,32.5,12.1,49.1,34.2c22.2,29.5,69.9,48,106,58.3c1.5,0.4,1.7,1.6,1.6,2.3C398.7,143.6,398.4,144.9,396.7,145.2z"/>
<g>
	<polygon points="292.8,282 292.8,282 292.8,282 	"/>
	<path d="M306.8,323.4c0.4-29.5-13.9-39.6-14.8-40.2l-0.7-0.4c-1.2-0.6-2.2-0.9-3.1-0.9c-54-3.3-135.8-52.4-151.6-62.3
		c-1.2-0.8-2.6-1.1-3.9-1.1c-1.2,0-2.4,0.3-3.5,0.9c-2.4,1.3-4,3.8-4.2,6.6c-1.2,23.8-0.8,104,53.8,135.8c5.9,3.4,12,5.8,18.2,7
		c7.4,1.6,14.8,2.4,22.2,2.4c38.7,0,68.9-22.1,80.1-31.6C304,335.6,306.7,329.7,306.8,323.4z M220,272.5
		c17.3,7.1,33.1,12.1,47.1,15.1l2,0.4l-1.1,1.7c-3.5,5.7-10.7,16.7-20,27l-1.3,1.4l-31.1-47.4L220,272.5z M240.6,324.5l-0.9,0.8
		c-11.8,10.9-23.1,16.4-33.6,16.4c-4.3,0-8.4-0.9-12.4-2.7l-1-0.5l13.2-67.1L240.6,324.5z M184.8,333.9l-1.8-1.4
		c-10.8-8.4-19.2-21-25-37.4l-0.4-1.1l40.1-25.5L184.8,333.9z M150.9,238.2c13.6,7.8,27.2,15,40.3,21.4l2.3,1.1l-38.6,24.6l-0.5-1.9
		c-4.6-17.8-5.5-35.1-5.7-43.9l0-2.5L150.9,238.2z M219.1,359.3c-4.2,1.2-8.3,1.8-12.4,1.8c-1.9,0-3.8-0.1-5.7-0.4
		c-6-0.8-11.9-3-17.7-6.4c-47.4-27.6-50.6-95.8-49.7-123.9l0.1-2.5l6.5,4l0,0.8c-0.4,14.9,0,90.2,49.2,113.8
		c5.4,2.6,11.1,3.9,16.8,3.9c35.3,0,65.9-50,71.7-60.1l0.5-0.8l1,0.1c1.7,0.2,3.4,0.4,5.1,0.6l2.2,0.2l-1.1,1.9
		C276,309.5,250.7,350.2,219.1,359.3z M293.8,333L293.8,333c-8.4,7.1-25.9,20-48.9,26.1l-7.8,2.1l6.6-4.6
		c22.5-15.9,39.6-42.5,47.7-57l1.4-2.5l1.2,2.6c2.9,6.4,4.4,14.4,4.2,23.6C298.1,327.1,296.5,330.6,293.8,333z"/>
</g>
</svg>
