<?xml version="1.0" encoding="utf-8"?>
<!-- Generator: Adobe Illustrator 21.1.0, SVG Export Plug-In . SVG Version: 6.00 Build 0)  -->
<svg version="1.1" id="Слой_1" xmlns="http://www.w3.org/2000/svg" xmlns:xlink="http://www.w3.org/1999/xlink" x="0px" y="0px"
	 viewBox="0 0 254 262" style="enable-background:new 0 0 254 262;" xml:space="preserve">
<path d="M159.7,88.8c-1,0-1.8,0.1-2.7,0.1c-4,0-8.1,0-12.1,0c-5,0.1-7.4,2.5-7.5,7.5c0,3.7,0.1,7.3,0,11c0,1.3,0.4,1.7,1.7,1.7
	c6.2-0.1,12.3,0,18.5,0c0.7,0,1.3,0,2.3,0c-0.9,7.4-1.8,14.5-2.7,21.9c-6.6,0-13.1,0-19.7,0c0,21.6,0,43.1,0,64.7
	c-9.9,0-19.5,0-29.4,0c0-21.5,0-42.9,0-64.6c-4.8,0-9.4,0-14.1,0c0-7.3,0-14.4,0-21.9c3.3,0,6.4,0,9.6,0c5,0,4.5,0,4.5-4.4
	c0.1-5.9-0.2-11.9,0.3-17.8c0.9-10.3,9.2-18.9,19.5-19.7c10.2-0.8,20.4-0.7,30.6-1c0.4,0,1.2,0.6,1.2,0.9
	C159.8,74.4,159.7,81.6,159.7,88.8z"/>
</svg>
