<?xml version="1.0" encoding="utf-8"?>
<!-- Generator: Adobe Illustrator 21.1.0, SVG Export Plug-In . SVG Version: 6.00 Build 0)  -->
<svg version="1.1" id="Слой_1" xmlns="http://www.w3.org/2000/svg" xmlns:xlink="http://www.w3.org/1999/xlink" x="0px" y="0px"
	 viewBox="0 0 310.8 310.8" style="enable-background:new 0 0 310.8 310.8;" xml:space="preserve">
<path d="M151.6,117.6l-0.3,0c-22.9,0-41.6,18.7-41.7,41.6c-0.1,22.9,18.5,41.7,41.4,41.9l0.3,0c0,0,0,0,0,0
	c22.9,0,41.6-18.7,41.7-41.6C193.1,136.5,174.6,117.7,151.6,117.6z"/>
<path d="M265.4,171.8c0-29.1,0-58.2,0-87.2c0-1.9-0.1-3.9-0.4-5.9c-0.9-7.3-3.8-13.7-8.4-19.3c-7.8-9.2-17.9-13.9-29.8-14
	c-47.6-0.1-95.1,0-142.6,0c-2.8,0-5.8,0.3-8.7,1c-8.5,1.8-15.6,6.2-21.2,13.1c-5.8,7.1-8.7,15.5-8.7,25l0,52.6c0,29.7,0,59.4,0,89.1
	c0,2,0.1,4,0.4,5.9c1.4,9.9,6,18.1,13.7,24.5c7,5.8,15.4,8.8,24.9,8.8h71l34.2,0c12.3,0,24.6,0,36.8-0.1c3,0,6-0.3,9-1
	c8.5-1.8,15.7-6.2,21.3-13.1c5.8-7.1,8.7-15.5,8.7-25L265.4,171.8z M193.2,200.9c-11.2,11.3-26,17.5-41.8,17.5h-0.1
	c-15.7,0-30.5-6.2-41.7-17.4c-11.2-11.2-17.4-26-17.4-41.7c0-32.4,26.4-58.9,58.9-59.1l0.3,0c32.4,0,58.9,26.4,59,59
	C210.5,174.8,204.3,189.6,193.2,200.9z M231.3,89.7c-0.3,8-7,14.4-15,14.3c-8.2-0.1-14.8-7.1-14.5-15.3c0.3-8,7-14.4,15-14.3
	C225,74.5,231.6,81.5,231.3,89.7z"/>
</svg>
