<?xml version="1.0" encoding="utf-8"?>
<!-- Generator: Adobe Illustrator 21.1.0, SVG Export Plug-In . SVG Version: 6.00 Build 0)  -->
<svg version="1.1" id="Слой_1" xmlns="http://www.w3.org/2000/svg" xmlns:xlink="http://www.w3.org/1999/xlink" x="0px" y="0px"
	 viewBox="0 0 310.8 310.8" style="enable-background:new 0 0 310.8 310.8;" xml:space="preserve">
<path d="M249.5,71.9c0,0.7,0,1.4,0,2c-0.4,2.4-0.8,4.9-1.3,7.3c-2.2,11.4-4.4,22.8-6.7,34.1c-2.3,11.7-4.6,23.3-6.8,35
	c-2.3,11.9-4.7,23.9-7,35.8c-2.4,12.2-4.7,24.3-7.1,36.5c-0.4,2.1-0.6,4.3-1.3,6.3c-1.3,3.8-3.8,6.9-7.2,9.1
	c-4.7,3-9.9,3.5-15.2,2.3c-1.9-0.4-3.8-1-5.5-2.2c-11.1-8.5-22.2-17.1-33.3-25.6c-1.2-1-2.5-1.9-3.7-2.9c-0.4,0.3-0.7,0.6-1,0.9
	c-7,6.4-14,12.8-21,19.1c-0.9,0.8-2,1.5-3.1,2c-5.1,2.4-11.9,1.4-15.4-4.4c-1.5-2.5-2.6-5.2-3.5-8c-4.6-15-9.2-30-13.8-45
	c-0.2-0.6-0.4-1-1.1-1.2c-10.8-3.6-21.6-7.2-32.3-10.9c-2.8-0.9-5.7-1.7-8.2-3.1c-3.8-2.2-6.9-4.9-8.4-9.1c-0.4-1-0.6-2.2-0.9-3.2
	c0-0.9,0-1.8,0-2.7c0-0.1,0.1-0.2,0.1-0.4c0.4-2.9,1.6-5.3,3.6-7.4c2.2-2.3,4.9-3.9,7.8-5.1c13.4-5.7,26.9-11.3,40.3-17
	c42.1-17.7,84.2-35.4,126.3-53.1c3-1.3,6.1-2.5,9.4-3c7.2-1.1,14,3.4,15.8,10.4C249.2,69.6,249.3,70.8,249.5,71.9z M153.5,189.3
	c0.3,0.2,0.5,0.3,0.6,0.5c15,11.5,30,23,45.1,34.5c0.7,0.5,1.7,0.9,2.5,1.1c1.3,0.3,2.5-0.6,2.8-1.9c0.9-4.8,1.9-9.6,2.8-14.5
	c2.3-11.9,4.6-23.8,7-35.7c2.4-12.5,4.9-24.9,7.3-37.4c2.2-11.4,4.5-22.8,6.7-34.2c1.7-8.9,3.5-17.7,5.2-26.6
	c0.1-0.4,0.1-0.8,0.1-1.4c-56.9,24-113.6,47.8-170.5,71.8c0.4,0.2,0.7,0.2,0.9,0.3c14.7,5,29.4,9.9,44.1,14.9c0.8,0.3,1.3,0.2,2-0.3
	c12.3-7.7,24.7-15.3,37-23c18.9-11.7,37.9-23.5,56.8-35.2c1-0.6,2.1-0.9,3.2-1.2c1-0.2,1.7,0.2,1.9,0.9c0.3,1,0.4,2-0.4,2.8
	c-0.6,0.6-1.1,1.2-1.7,1.8c-1.8,1.7-3.6,3.4-5.4,5c-23.2,21.7-46.5,43.3-69.7,65c-0.3,0.2-0.5,0.6-0.5,1c-0.5,3.1-1,6.1-1.5,9.2
	c-1.2,7.9-2.5,15.8-3.7,23.8c-0.2,1.2-0.4,2.5-0.6,3.8c0.1,0,0.1,0.1,0.2,0.1C134.9,206.2,144.2,197.8,153.5,189.3z"/>
</svg>
