<?xml version="1.0" encoding="utf-8"?>
<!-- Generator: Adobe Illustrator 21.1.0, SVG Export Plug-In . SVG Version: 6.00 Build 0)  -->
<svg version="1.1" id="Слой_1" xmlns="http://www.w3.org/2000/svg" xmlns:xlink="http://www.w3.org/1999/xlink" x="0px" y="0px"
	 viewBox="0 0 310.8 310.8" style="enable-background:new 0 0 310.8 310.8;" xml:space="preserve">
<path d="M176.4,105.3c0,7.1-0.2,14.2,0.1,21.3c0.1,2.8,0.7,5.7,1.8,8.3c1.9,4.6,5.3,5.5,9,2.1c3.6-3.2,6.9-6.8,9.7-10.7
	c10-13.6,17.8-28.6,24-44.3c0.5-1.3,1.2-2.5,2-3.7c1.2-1.8,3-2.6,5.2-2.7c14.8-0.1,29.7-0.2,44.5-0.3c1.6,0,3.3,0.4,4.8,0.9
	c2.9,1,4,3,3.6,6c-0.5,4.1-2.2,7.8-4.1,11.3c-5.4,10.1-12.2,19.2-19.1,28.3c-5,6.7-10,13.5-15,20.2c-0.5,0.7-0.9,1.5-1.3,2.2
	c-2.6,4.6-2,8.8,1.4,12.7c1.7,1.9,3.5,3.8,5.3,5.6c8.5,8.1,17.2,15.9,24.4,25.2c2.6,3.4,5,7.1,7.1,10.9c2.9,5.2,1.3,9.3-4.2,11.5
	c-2.2,0.9-4.6,1.4-6.9,1.5c-10.2,0.3-20.4-0.1-30.5,0.6c-10.2,0.6-18.1-3.4-24.9-10.3c-5.3-5.5-10.3-11.2-15.5-16.7
	c-1.7-1.8-3.7-3.4-5.8-4.8c-4.3-2.8-8.2-1.9-11,2.4c-2.6,3.9-3.4,8.3-4,12.9c-0.3,2.5-0.4,5-0.5,7.5c-0.4,5.3-2.6,8.1-8.8,8.4
	c-9,0.5-18,0.8-27-0.8c-16.1-2.8-30.2-9.7-42.7-20.1c-7.7-6.5-14.2-14-20.3-22C61.6,147.2,48.8,123.6,37,99.3
	c-2.2-4.6-4.3-9.3-6.5-14c-0.2-0.3-0.3-0.7-0.4-1c-1.7-4.8-0.2-7.4,4.8-8.4c1.3-0.2,2.7-0.4,4-0.4c10.9-0.1,21.8-0.1,32.7-0.2
	c5.6,0,8.9,2.3,11.3,7.4c4.1,8.8,8.1,17.6,12.6,26.1c4.8,9,10.2,17.8,17.1,25.4c1.3,1.4,2.7,2.7,4.3,3.7c3.8,2.6,7.3,1.6,8.8-2.7
	c1.1-3.2,2-6.6,2.3-10c1-10.4,0.9-20.8-0.3-31.2c-0.3-2.5-1-4.9-2-7.2c-2-4.6-6.2-6.4-10.8-7.4c-2.2-0.5-2.5-1.1-1.1-3
	c3.3-4.4,8.1-6.2,13.3-6.5c8.2-0.6,16.4-0.9,24.6-0.9c4.8,0,9.6,0.4,14.2,1.2c8.2,1.5,10.8,4.8,11,13.2c0.1,3.6-0.1,7.2-0.1,10.8
	c0,3.6,0,7.2,0,10.8C176.7,105.3,176.5,105.3,176.4,105.3z"/>
</svg>
