<?xml version="1.0" encoding="utf-8"?>
<!-- Generator: Adobe Illustrator 21.1.0, SVG Export Plug-In . SVG Version: 6.00 Build 0)  -->
<svg version="1.1" id="Слой_1" xmlns="http://www.w3.org/2000/svg" xmlns:xlink="http://www.w3.org/1999/xlink" x="0px" y="0px"
	 viewBox="0 0 310.8 310.8" style="enable-background:new 0 0 310.8 310.8;" xml:space="preserve">
<g>
	<path d="M43.9,253.2c0-0.1,0-0.1,0-0.2c0.6-2.1,1.2-4.1,1.8-6.2c4.3-15.5,8.5-31,12.8-46.5c0.4-1.4,0.6-2.6-0.4-3.8
		c-0.4-0.4-0.5-1-0.8-1.5c-7.4-13.9-11.5-28.8-12.3-44.5c-0.5-10.1,0.4-20,2.7-29.8c4.2-17.4,12.2-32.8,24.2-46.2
		C82.8,62.3,96,53,111.3,46.8c10.1-4.1,20.6-6.6,31.6-7.4c1.4-0.1,2.7-0.2,4.1-0.3c2.8,0,5.6,0,8.4,0c0.3,0,0.6,0.1,1,0.1
		c6.2,0.3,12.3,1.1,18.3,2.4c22.1,5.1,40.7,16.1,55.9,33c10,11.2,17.3,23.9,21.9,38.2c2.5,7.9,4.1,16,4.7,24.2
		c0.1,1.4,0.2,2.7,0.3,4.1c0,2.8,0,5.6,0,8.4c-0.1,0.4-0.1,0.7-0.2,1.1c-0.3,3.3-0.5,6.7-1,10c-1.5,10.8-4.7,21-9.4,30.8
		c-7,14.4-16.7,26.7-29.3,36.7c-17,13.6-36.3,21.3-57.9,23.1c-9.5,0.8-18.9,0.2-28.2-1.5c-10.7-2-20.8-5.6-30.4-10.7
		c-0.4-0.2-1-0.3-1.4-0.2c-16.3,4.3-32.6,8.6-48.9,12.9C48.4,252.1,46.1,252.7,43.9,253.2z M69.5,228c0.3-0.1,0.5-0.1,0.7-0.2
		c10.6-2.8,21.3-5.6,31.9-8.3c0.4-0.1,1.1,0,1.5,0.2c2.6,1.4,5.1,3,7.7,4.3c10.2,5.1,20.9,8.2,32.3,9.1c7.6,0.6,15.1,0.3,22.6-1
		c13.4-2.4,25.6-7.6,36.6-15.6c11.1-8.1,19.9-18.2,26.3-30.3c6-11.4,9.3-23.5,10-36.4c0.4-8.2-0.2-16.3-2.1-24.3
		c-3.6-15.5-10.8-29.2-21.7-40.7c-14.4-15.2-32-24.3-52.7-27.1c-8.7-1.2-17.4-1-26.1,0.5c-11.7,2-22.6,6.1-32.6,12.5
		c-12.7,8.1-22.8,18.7-30.1,31.9c-5.9,10.6-9.4,22-10.6,34.1c-0.6,6.6-0.5,13.1,0.3,19.7c0.9,7.2,2.7,14.2,5.3,20.9
		c2.4,6.2,5.5,11.9,9.1,17.5c0.2,0.4,0.4,1,0.3,1.4c-2.5,9.4-5.1,18.7-7.7,28C70.1,225.4,69.8,226.6,69.5,228z"/>
	<path d="M116.5,96.3c0.9,0,1.7,0,2.6,0c1.9-0.1,3.4,0.7,4.2,2.4c0.8,1.5,1.5,3.1,2.2,4.7c2.5,5.9,5,11.9,7.4,17.8
		c0.6,1.4,0.5,2.8-0.1,4.2c-1.7,3.7-4.4,6.5-7.1,9.4c-1.6,1.8-1.8,3-0.6,5c7.4,12.6,17.4,22.5,30.6,29c2.1,1,4.2,1.9,6.3,2.8
		c2.1,0.9,3.5,0.6,4.9-1.1c2.8-3.3,5.5-6.7,8.2-10.1c1.7-2.2,2.8-2.8,5.4-1.7c3.1,1.3,6.2,2.7,9.2,4.1c4.2,2,8.3,4.1,12.5,6.1
		c1.9,0.9,2.7,2.2,2.6,4.3c-0.1,3.6-0.8,7.2-2.2,10.6c-0.8,2-2.2,3.5-3.8,4.9c-3.5,3.1-7.5,5.4-12,6.8c-3.2,0.9-6.5,1-9.9,0.9
		c-4.9-0.1-9.4-1.7-14-3.2c-11.1-3.7-21.2-9-30.3-16.5c-6-5-11.5-10.4-16.5-16.4c-4.4-5.2-8.5-10.7-12.1-16.5
		c-3.2-5.2-5.7-10.7-6.7-16.7c-1.7-10.2,0.9-19.2,8.2-26.8c1.7-1.8,3.5-3.3,6-3.7c1.6-0.2,3.2-0.2,4.8-0.3
		C116.5,96.1,116.5,96.2,116.5,96.3z"/>
</g>
</svg>
