<?xml version="1.0" encoding="utf-8"?>
<!-- Generator: Adobe Illustrator 21.1.0, SVG Export Plug-In . SVG Version: 6.00 Build 0)  -->
<svg version="1.1" id="Слой_1" xmlns="http://www.w3.org/2000/svg" xmlns:xlink="http://www.w3.org/1999/xlink" x="0px" y="0px"
	 viewBox="0 0 310.8 310.8" style="enable-background:new 0 0 310.8 310.8;" xml:space="preserve">
<path d="M52.9,166.8c0-7.7,0-15.4,0-23.1c0.1-0.5,0.2-1,0.3-1.5c0.5-7.8,0.9-15.6,1.5-23.4c0.7-10.9,4.5-20.6,11.9-28.7
	c4.6-5.1,10.3-8.3,17.4-8.7c5.4-0.3,10.8-0.9,16.2-1.1c12.4-0.5,24.7-1.1,37.1-1.3c34.5-0.6,69,0.3,103.4,2.7
	c5.9,0.4,11,2.7,15.2,6.9c6.2,6.1,9.6,13.8,10.7,22.3c1.1,8.2,1.4,16.5,2,24.7c0.2,2.3,0.3,4.6,0.5,6.9c0,7.9,0,15.9,0,23.8
	c-0.1,0.5-0.2,1-0.3,1.5c-0.5,7.9-1,15.7-1.4,23.6c-0.5,10.3-4.1,19.5-10.5,27.5c-4.3,5.3-9.6,9.5-16.5,10.6
	c-5.5,0.9-11.2,1.1-16.8,1.3c-15.1,0.6-30.1,1.2-45.2,1.4c-31.3,0.4-62.7-0.4-94-2.3c-6.4-0.4-11.7-2.9-16.3-7.3
	c-7-6.7-11.2-15.1-12.6-24.5c-1.2-8-1.4-16.2-2.1-24.4C53.2,171.2,53.1,169,52.9,166.8z M201.5,154.9c-22.7-13-45-25.8-67.4-38.7
	c0,25.9,0,51.5,0,77.3C156.5,180.7,178.8,167.9,201.5,154.9z"/>
</svg>
